<?xml version="1.0" encoding="UTF-8"?>
<!DOCTYPE svg PUBLIC "-//W3C//DTD SVG 1.1//EN" "http://www.w3.org/Graphics/SVG/1.1/DTD/svg11.dtd">
<!-- Creator: CorelDRAW X6 -->
<svg xmlns="http://www.w3.org/2000/svg" xml:space="preserve" width="1000px" height="422px" version="1.1" style="shape-rendering:geometricPrecision; text-rendering:geometricPrecision; image-rendering:optimizeQuality; fill-rule:evenodd; clip-rule:evenodd"
viewBox="0 0 1000 422"
 xmlns:xlink="http://www.w3.org/1999/xlink">
 <defs>
  <style type="text/css">
   <![CDATA[
    .fil0 {fill:black}
   ]]>
  </style>
 </defs>
 <g id="Ebene_x0020_1">
  <metadata id="CorelCorpID_0Corel-Layer"/>
  <g id="_813339664">
   <g>
    <path class="fil0" d="M463 127c55,-8 11,34 -38,37 -36,2 -31,-1 -7,-18 14,-11 29,-16 45,-19zm320 0c53,-8 11,34 -40,37 -34,2 -29,-3 -5,-19 14,-9 29,-16 45,-18zm-68 40c8,4 5,11 22,10 19,0 60,-14 75,-22 48,-28 41,-56 -19,-43 -63,12 -123,52 -147,113 -3,10 -37,25 -42,15 -3,-8 15,-36 19,-44 15,-27 33,-54 50,-80 16,-23 38,-56 48,-82 14,-34 2,-23 -22,-17 -16,5 -46,6 -45,20l27 -3c1,20 -52,95 -67,118 -11,19 -24,39 -34,58 -9,16 -4,17 -21,26 -9,4 -23,14 -33,8 -12,-26 128,-194 121,-230 -7,-2 -30,7 -39,9 -16,3 -35,4 -34,16l27 0c5,9 -43,78 -51,91 -22,37 -34,49 -71,72 -28,18 -62,47 -96,47 -54,2 0,-79 13,-83 4,2 2,8 14,11 14,2 51,-9 64,-14 12,-4 64,-32 48,-49 -14,-15 -69,2 -86,9 -23,9 -46,22 -64,38 -39,34 -86,123 6,105 27,-5 50,-14 74,-30 13,-10 48,-39 58,-44 1,11 -38,56 -18,72 18,15 66,-19 72,-18 11,13 3,26 37,16 8,-2 37,-17 41,-17 9,4 -5,26 48,23 57,-4 142,-69 150,-67l-36 65c8,4 35,-3 37,-6 4,-5 12,-23 15,-30 22,-44 69,-101 123,-97 13,1 23,-10 21,-19 -18,-24 -95,40 -103,40l15 -42 -3 -1c-3,-1 -61,18 -59,29l15 3c3,7 -8,29 -13,36 -5,6 -25,15 -32,20 -22,12 -46,24 -68,35 -123,60 -58,-63 -37,-67zm-583 14c9,0 83,-3 81,10 -1,4 -41,43 -48,50 -30,30 -72,65 -100,95 -10,11 -8,24 5,16 6,-4 42,-43 82,-66 56,-34 90,-31 149,-2 43,21 25,19 -1,42 -59,53 -133,91 -213,60 -105,-41 -94,-193 45,-205zm202 -93c-1,-11 43,-41 55,-30 9,8 -10,21 -17,24 -9,3 -29,9 -38,6zm18 82c-12,-8 -102,0 -88,-14 15,-16 40,-48 61,-52 28,-4 61,-6 82,-29 34,-37 9,-53 -31,-37 -76,30 -37,76 -139,4 -11,-8 -22,-16 -31,-25 -12,-11 -21,-28 -27,-7 -3,11 -26,81 -23,87l13 1 13 -29c13,-3 92,44 97,53 -1,7 -33,37 -41,38 -16,2 -52,-4 -73,-3 -42,3 -85,11 -118,38 -64,54 -64,160 12,207 37,22 87,25 128,13 43,-12 63,-33 97,-59 13,-11 31,-23 43,-35 21,-19 27,-4 47,10 13,10 31,23 43,34 7,7 14,14 24,9 9,-5 17,-13 22,-20l-86 -64c5,-17 61,-6 62,-7 8,-9 -18,-20 -26,-20 -12,-1 -25,6 -36,12 -19,9 -16,8 -33,-3 -11,-7 -20,-11 -31,-17 -22,-11 -55,-20 -79,-18 -23,3 -66,25 -71,25 1,-4 50,-53 57,-60 17,-17 18,-14 43,-9 9,2 44,4 49,9l-3 24 3 2 40 -58zm151 144c0,7 9,8 7,14 -2,6 -11,3 -14,-3 -6,-16 13,-23 22,-13 7,9 5,25 -7,30 -10,4 -25,-3 -30,-12 -5,-10 -3,-29 7,-35 7,-3 12,3 7,10 -4,5 -8,6 -9,14 -1,14 12,24 24,15 16,-12 3,-28 -7,-20zm-34 10c5,44 71,26 61,-10 -3,-12 -11,-10 -18,-12 -11,-4 3,-19 -17,-14 -17,5 -28,16 -26,36zm128 -15c10,-5 14,6 7,11 -7,5 -14,-7 -7,-11zm-12 7c3,15 35,15 31,-5 -3,-16 -34,-12 -31,5zm226 40c6,1 6,10 15,8 3,-5 3,-18 1,-23 -9,0 -3,2 -8,7 -5,0 -3,-2 -8,-6 -4,-3 -4,-2 -9,-1 -2,7 -3,16 0,22l6 0 3 -7zm-251 2c2,0 15,14 13,2 -1,-6 -2,-3 -1,-10 4,-14 -20,-12 -22,-7 0,2 -1,10 -1,13 0,6 0,4 4,8 6,-2 2,-4 7,-6zm184 -10l-1 -3 3 1c0,1 3,0 -2,2zm0 9c8,3 7,9 12,6 4,-4 1,-3 0,-9 0,-4 1,-5 1,-10 -5,-5 -16,-6 -22,-2 -2,4 -1,9 -1,14 0,6 0,7 6,9l4 -8zm-190 -31c6,-4 1,-9 10,-9 8,0 2,5 9,9 7,-3 8,-21 0,-24 -7,4 -2,7 -11,8 -6,-4 -3,-5 -7,-8 -8,3 -8,21 -1,24zm149 14c-8,3 -6,18 -1,22 5,5 17,5 22,-1 4,-6 1,-28 -6,-19 -3,5 2,23 -11,14 0,-5 2,-13 -4,-16zm-106 7c3,-3 2,0 4,-5 -4,-2 -14,-4 -18,0 -3,3 -2,14 -1,19 5,5 11,6 18,3l0 -4 -6 -3c1,-4 2,-3 6,-6l-3 -4zm76 -30c1,-6 0,-1 0,-5 -1,-1 -1,-2 0,-3 0,-2 3,-4 -1,-6 -4,-3 -13,-2 -16,1 -2,5 -2,16 0,21 4,3 15,2 19,-1 -4,-5 -3,-2 -8,-3 0,-4 -2,0 1,-3 3,-2 -1,1 1,0 1,-1 3,-1 4,-1zm103 23c-3,3 -15,23 -7,24 6,1 5,-7 11,-6 4,1 4,7 11,6 3,-6 -1,-10 -3,-16 -3,-6 -5,-9 -12,-8zm-110 24c6,2 7,-6 13,-5 6,0 3,6 12,5 2,-6 -1,-8 -3,-14 -11,-27 -24,7 -22,14zm-45 -17c5,-4 5,0 8,-5 -4,-4 -15,-4 -18,1 -5,9 6,10 8,14l-7 2c-1,4 -1,3 1,6 7,1 13,1 18,-5 1,-10 -5,-9 -10,-13zm240 -36c-14,-12 -13,-7 -17,-4 -2,2 -3,2 -6,3 3,6 3,8 5,14 5,-1 9,-1 14,-1l4 -12zm-99 -1c3,4 3,9 4,14 6,-1 9,0 15,-1l3 -13c-2,-1 -10,-7 -13,-8 -6,8 -2,3 -9,8zm43 13c4,1 8,0 13,1 1,-2 4,-13 4,-15 -11,-4 -4,-1 -10,-7 -5,4 -7,5 -12,8l5 13zm54 18c-5,-2 -18,-2 -23,0 2,8 6,2 6,12 1,7 -1,11 7,11 5,-4 2,-7 3,-13 2,-7 7,-3 7,-10zm-130 -18l12 1c1,-2 4,-13 5,-15 -9,-3 -5,-2 -11,-7 -1,1 -11,8 -11,8l5 13zm-92 -13c5,-3 5,-1 7,-6 -4,-4 -19,-5 -23,1 7,8 6,0 7,8 1,5 -1,7 2,12 9,0 6,-8 7,-15zm54 -8c-10,0 -9,12 -7,19 2,8 17,6 21,3 -3,-5 -5,-2 -10,-5 -5,-6 1,-10 -4,-17zm-30 40c-4,-3 -18,-3 -23,-1 2,7 6,4 7,10 2,7 -2,9 4,14 7,-5 2,-8 4,-15 2,-4 6,-4 8,-8z"/>
   </g>
  </g>
 </g>
</svg>
